<svg width="18" height="18" viewBox="0 0 18 18" fill="none" xmlns="http://www.w3.org/2000/svg">
<path d="M13.5699 17H4.42994C4.23754 16.9954 4.04791 16.953 3.87191 16.8752C3.6959 16.7973 3.53695 16.6856 3.40415 16.5463C3.27136 16.407 3.16731 16.2429 3.09795 16.0633C3.02859 15.8838 2.99529 15.6924 2.99994 15.5V5.61499H3.99994V15.5C3.99517 15.5611 4.00252 15.6225 4.02157 15.6808C4.04063 15.739 4.07101 15.7929 4.11097 15.8394C4.15093 15.8859 4.19968 15.924 4.25442 15.9515C4.30917 15.9791 4.36881 15.9956 4.42994 16H13.5699C13.6311 15.9956 13.6907 15.9791 13.7455 15.9515C13.8002 15.924 13.8489 15.8859 13.8889 15.8394C13.9289 15.7929 13.9593 15.739 13.9783 15.6808C13.9974 15.6225 14.0047 15.5611 13.9999 15.5V5.61499H14.9999V15.5C15.0046 15.6924 14.9713 15.8838 14.9019 16.0633C14.8326 16.2429 14.7285 16.407 14.5957 16.5463C14.4629 16.6856 14.304 16.7973 14.128 16.8752C13.952 16.953 13.7623 16.9954 13.5699 17Z" fill="black"/>
<path d="M15.39 4.5H2.5C2.36739 4.5 2.24021 4.44732 2.14645 4.35355C2.05268 4.25979 2 4.13261 2 4C2 3.86739 2.05268 3.74021 2.14645 3.64645C2.24021 3.55268 2.36739 3.5 2.5 3.5H15.39C15.5226 3.5 15.6498 3.55268 15.7436 3.64645C15.8373 3.74021 15.89 3.86739 15.89 4C15.89 4.13261 15.8373 4.25979 15.7436 4.35355C15.6498 4.44732 15.5226 4.5 15.39 4.5Z" fill="black"/>
<path d="M10.5 6.5H11.5V14H10.5V6.5Z" fill="black"/>
<path d="M6.5 6.5H7.5V14H6.5V6.5Z" fill="black"/>
<path d="M11.5 2.93H10.55V2H7.45V2.93H6.5V2C6.49968 1.74322 6.59815 1.49616 6.775 1.31C6.95186 1.12384 7.19354 1.01284 7.45 1H10.55C10.8065 1.01284 11.0481 1.12384 11.225 1.31C11.4019 1.49616 11.5003 1.74322 11.5 2V2.93Z" fill="black"/>
</svg>
