<svg width="24" height="25" viewBox="0 0 24 25" fill="none" xmlns="http://www.w3.org/2000/svg">
<path d="M13.89 14.82H13.78L10.89 14.5C10.6655 14.4743 10.4562 14.3734 10.2964 14.2136C10.1366 14.0537 10.0357 13.8445 10.01 13.62L9.68 10.73C9.66725 10.5779 9.68946 10.425 9.74493 10.2829C9.80039 10.1407 9.88764 10.0132 10 9.90998L17 2.95998C17.1874 2.77373 17.4408 2.66919 17.705 2.66919C17.9692 2.66919 18.2226 2.77373 18.41 2.95998L21.62 6.16998C21.8063 6.35734 21.9108 6.6108 21.9108 6.87498C21.9108 7.13917 21.8063 7.39262 21.62 7.57998L14.67 14.58C14.5642 14.6726 14.44 14.7418 14.3056 14.7832C14.1712 14.8245 14.0296 14.8371 13.89 14.82ZM11.89 12.59L13.5 12.77L19.4 6.86998L17.63 5.07998L11.73 10.98L11.89 12.59Z" fill="black"/>
<path d="M19 22.5H12C11.7348 22.5 11.4804 22.3946 11.2929 22.2071C11.1054 22.0196 11 21.7652 11 21.5C11 21.2348 11.1054 20.9804 11.2929 20.7929C11.4804 20.6054 11.7348 20.5 12 20.5H19C19.2652 20.5 19.5196 20.3946 19.7071 20.2071C19.8946 20.0196 20 19.7652 20 19.5C20 19.2348 19.8946 18.9804 19.7071 18.7929C19.5196 18.6054 19.2652 18.5 19 18.5H5C4.20435 18.5 3.44129 18.1839 2.87868 17.6213C2.31607 17.0587 2 16.2956 2 15.5C2 14.7044 2.31607 13.9413 2.87868 13.3787C3.44129 12.8161 4.20435 12.5 5 12.5H7C7.26522 12.5 7.51957 12.6054 7.70711 12.7929C7.89464 12.9804 8 13.2348 8 13.5C8 13.7652 7.89464 14.0196 7.70711 14.2071C7.51957 14.3946 7.26522 14.5 7 14.5H5C4.73478 14.5 4.48043 14.6054 4.29289 14.7929C4.10536 14.9804 4 15.2348 4 15.5C4 15.7652 4.10536 16.0196 4.29289 16.2071C4.48043 16.3946 4.73478 16.5 5 16.5H19C19.7956 16.5 20.5587 16.8161 21.1213 17.3787C21.6839 17.9413 22 18.7044 22 19.5C22 20.2956 21.6839 21.0587 21.1213 21.6213C20.5587 22.1839 19.7956 22.5 19 22.5Z" fill="black"/>
</svg>
