<svg width="31" height="30" viewBox="0 0 31 30" fill="none" xmlns="http://www.w3.org/2000/svg">
<path d="M17.6469 4.57458L25.7872 18.2191C26.7814 19.8855 25.5807 22 23.6403 22H7.35972C5.41928 22 4.2186 19.8855 5.21277 18.2191L13.353 4.57458C14.3228 2.94906 16.6772 2.94906 17.6469 4.57458Z" fill="white" stroke="#212427"/>
<path d="M15.712 15.736C15.456 15.736 15.3173 15.592 15.296 15.304L15.024 8.632C15.0133 8.38667 15.0667 8.18933 15.184 8.04C15.3013 7.88 15.472 7.8 15.696 7.8C15.9307 7.8 16.1067 7.88 16.224 8.04C16.3413 8.18933 16.3947 8.38667 16.384 8.632L16.112 15.304C16.0907 15.592 15.9573 15.736 15.712 15.736ZM15.632 19C15.408 19 15.2373 18.936 15.12 18.808C15.0027 18.6693 14.944 18.488 14.944 18.264V17.944C14.944 17.72 15.0027 17.544 15.12 17.416C15.2373 17.288 15.408 17.224 15.632 17.224H15.776C16 17.224 16.1707 17.288 16.288 17.416C16.4053 17.544 16.464 17.72 16.464 17.944V18.264C16.464 18.488 16.4053 18.6693 16.288 18.808C16.1707 18.936 16 19 15.776 19H15.632Z" fill="#212427"/>
</svg>
